<?xml version="1.0" encoding="UTF-8"?>
<mxfile host="app.diagrams.net" modified="2024-01-01T00:00:00.000Z" agent="5.0" etag="shvayambhu-architecture" version="21.0.0" type="device">
  <diagram name="Shvayambhu-Architecture" id="main-architecture">
    <mxGraphModel dx="1426" dy="794" grid="1" gridSize="10" guides="1" tooltips="1" connect="1" arrows="1" fold="1" page="1" pageScale="1" pageWidth="1169" pageHeight="827" math="0" shadow="0">
      <root>
        <mxCell id="0" />
        <mxCell id="1" parent="0" />
        
        <!-- Main Container -->
        <mxCell id="main-container" value="Shvayambhu LLM System" style="rounded=1;whiteSpace=wrap;html=1;fillColor=#f5f5f5;strokeColor=#666666;fontStyle=1;fontSize=16;" vertex="1" parent="1">
          <mxGeometry x="80" y="40" width="1000" height="740" as="geometry" />
        </mxCell>
        
        <!-- BLT Component -->
        <mxCell id="blt-component" value="BLT&#xa;Byte-Level&#xa;Transformer" style="rounded=1;whiteSpace=wrap;html=1;fillColor=#dae8fc;strokeColor=#6c8ebf;fontStyle=1;" vertex="1" parent="1">
          <mxGeometry x="150" y="120" width="200" height="100" as="geometry" />
        </mxCell>
        
        <!-- SEAL Component -->
        <mxCell id="seal-component" value="SEAL&#xa;Self-Adapting&#xa;Architecture" style="rounded=1;whiteSpace=wrap;html=1;fillColor=#d5e8d4;strokeColor=#82b366;fontStyle=1;" vertex="1" parent="1">
          <mxGeometry x="440" y="120" width="200" height="100" as="geometry" />
        </mxCell>
        
        <!-- ProRL Component -->
        <mxCell id="prorl-component" value="ProRL&#xa;Reasoning&#xa;Engine" style="rounded=1;whiteSpace=wrap;html=1;fillColor=#ffe6cc;strokeColor=#d79b00;fontStyle=1;" vertex="1" parent="1">
          <mxGeometry x="730" y="120" width="200" height="100" as="geometry" />
        </mxCell>
        
        <!-- Unified Inference Engine -->
        <mxCell id="inference-engine" value="Unified Inference Engine&#xa;(Metal-Optimized for Apple Silicon)" style="rounded=1;whiteSpace=wrap;html=1;fillColor=#e1d5e7;strokeColor=#9673a6;fontStyle=1;" vertex="1" parent="1">
          <mxGeometry x="350" y="300" width="400" height="80" as="geometry" />
        </mxCell>
        
        <!-- Safety Layer -->
        <mxCell id="safety-layer" value="Safety &amp; Verification Layer&#xa;(Anti-Hallucination, Consistency, Abstention)" style="rounded=1;whiteSpace=wrap;html=1;fillColor=#f8cecc;strokeColor=#b85450;fontStyle=1;" vertex="1" parent="1">
          <mxGeometry x="350" y="450" width="400" height="80" as="geometry" />
        </mxCell>
        
        <!-- Input/Output -->
        <mxCell id="input" value="Input&#xa;(UTF-8 Bytes)" style="ellipse;whiteSpace=wrap;html=1;fillColor=#fff2cc;strokeColor=#d6b656;" vertex="1" parent="1">
          <mxGeometry x="150" y="620" width="120" height="80" as="geometry" />
        </mxCell>
        
        <mxCell id="output" value="Output&#xa;(UTF-8 Bytes)" style="ellipse;whiteSpace=wrap;html=1;fillColor=#fff2cc;strokeColor=#d6b656;" vertex="1" parent="1">
          <mxGeometry x="830" y="620" width="120" height="80" as="geometry" />
        </mxCell>
        
        <!-- Arrows -->
        <mxCell id="arrow1" style="edgeStyle=orthogonalEdgeStyle;rounded=0;orthogonalLoop=1;jettySize=auto;html=1;" edge="1" parent="1" source="blt-component" target="inference-engine">
          <mxGeometry relative="1" as="geometry" />
        </mxCell>
        
        <mxCell id="arrow2" style="edgeStyle=orthogonalEdgeStyle;rounded=0;orthogonalLoop=1;jettySize=auto;html=1;" edge="1" parent="1" source="seal-component" target="inference-engine">
          <mxGeometry relative="1" as="geometry" />
        </mxCell>
        
        <mxCell id="arrow3" style="edgeStyle=orthogonalEdgeStyle;rounded=0;orthogonalLoop=1;jettySize=auto;html=1;" edge="1" parent="1" source="prorl-component" target="inference-engine">
          <mxGeometry relative="1" as="geometry" />
        </mxCell>
        
        <mxCell id="arrow4" style="edgeStyle=orthogonalEdgeStyle;rounded=0;orthogonalLoop=1;jettySize=auto;html=1;" edge="1" parent="1" source="inference-engine" target="safety-layer">
          <mxGeometry relative="1" as="geometry" />
        </mxCell>
        
        <mxCell id="arrow5" style="edgeStyle=orthogonalEdgeStyle;rounded=0;orthogonalLoop=1;jettySize=auto;html=1;" edge="1" parent="1" source="input" target="blt-component">
          <mxGeometry relative="1" as="geometry" />
        </mxCell>
        
        <mxCell id="arrow6" style="edgeStyle=orthogonalEdgeStyle;rounded=0;orthogonalLoop=1;jettySize=auto;html=1;" edge="1" parent="1" source="safety-layer" target="output">
          <mxGeometry relative="1" as="geometry" />
        </mxCell>
      </root>
    </mxGraphModel>
  </diagram>
</mxfile>